PathFileType	4	(X/Y/Z)	C:/Users/opensim2020/Desktop/walking_exp_matlab/subject01_walking04_straight_01.trc																																																																																																																															
DataRate	CameraRate	NumFrames	NumMarkers	Units	OrigDataRate	OrigDataStartFrame	OrigNumFrames																																																																																																																											
100	100	7	43	mm	100	893	216																																																																																																																											
Frame#	Time	LFHD			RFHD			LBHD			RBHD			C7			T10			CLAV			STRN			RBAK			LSHO			LUPA			LELB			LFRM			LWRA			LWRB			LFIN			RSHO			RUPA			RELB			RFRM			RWRA			RWRB			RFIN			LASI			RASI			LPSI			RPSI			LTHI			LKNE			LTIB			LANK			LHEE			LTOE			RTHI			RKNE			RTIB			RANK			RHEE			RTOE			*39			*40			*41			*42		
		X1	Y1	Z1	X2	Y2	Z2	X3	Y3	Z3	X4	Y4	Z4	X5	Y5	Z5	X6	Y6	Z6	X7	Y7	Z7	X8	Y8	Z8	X9	Y9	Z9	X10	Y10	Z10	X11	Y11	Z11	X12	Y12	Z12	X13	Y13	Z13	X14	Y14	Z14	X15	Y15	Z15	X16	Y16	Z16	X17	Y17	Z17	X18	Y18	Z18	X19	Y19	Z19	X20	Y20	Z20	X21	Y21	Z21	X22	Y22	Z22	X23	Y23	Z23	X24	Y24	Z24	X25	Y25	Z25	X26	Y26	Z26	X27	Y27	Z27	X28	Y28	Z28	X29	Y29	Z29	X30	Y30	Z30	X31	Y31	Z31	X32	Y32	Z32	X33	Y33	Z33	X34	Y34	Z34	X35	Y35	Z35	X36	Y36	Z36	X37	Y37	Z37	X38	Y38	Z38	X39	Y39	Z39	X40	Y40	Z40	X41	Y41	Z41	X42	Y42	Z42	X43	Y43	Z43
																																																																																																																																		
82	0.81	-251.924	1674.94177	-1060.91956	-237.50786	1684.48511	-947.70294	-356.87186	1606.71472	-1050.75391	-344.52914	1614.83057	-930.34235	-372.10602	1434.81592	-1002.6756	-417.73123	1143.82397	-994.99005	-230.59319	1362.95898	-1007.58258	-193.35269	1205.80737	-1012.28558	-428.54803	1244.00989	-919.15277	-297.54477	1390.5249	-1166.87402	-353.28223	1208.58289	-1245.40039	-388.37387	1064.06128	-1240.76184	-375.86288	951.28394	-1265.74597	-327.12628	820.12646	-1245.94507	-380.83167	828.83179	-1272.81604	-352.62872	747.25647	-1276.40234	-284.45154	1394.24463	-853.57697	-331.96533	1197.71729	-743.20459	-323.11026	1071.75818	-730.99823	-264.37799	964.76221	-700.92346	-154.04175	877.11981	-722.17273	-195.5416	865.1441	-683.18365	-136.15015	804.48322	-682.54095	-248.01602	936.08575	-1108.41028	-254.328	927.44562	-890.16907	-435.35699	948.52802	-1064.07776	-439.75259	951.13153	-919.95679	-195.92563	622.72614	-1179.73096	-169.22339	491.40939	-1162.3407	-201.40875	307.116	-1176.13293	-196.33565	83.22937	-1131.24695	-233.71867	49.14249	-1074.28259	-51.34188	58.05949	-1141.51111	-350.15482	598.92798	-855.60712	-365.82703	441.34079	-887.09937	-442.117	281.78516	-888.11072	-492.99533	84.60622	-948.79596	-544.17871	53.44799	-1002.81128	-358.85849	33.35709	-941.94244	-257.25424	1714.63208	-969.92517	1973.14868	1023.32782	-3101.9502	2012.57007	1021.94006	-3140.57324	NaN	NaN	NaN
83	0.82	-242.50607	1674.00586	-1061.70325	-228.06595	1683.69128	-948.37683	-347.28073	1605.5968	-1051.30725	-335.07996	1613.93396	-931.03235	-362.66791	1434.08105	-1003.28229	-408.75247	1143.23425	-995.64429	-221.2968	1362.03833	-1008.10205	-184.24199	1204.82214	-1012.65369	-419.32071	1243.47961	-919.57404	-288.08417	1389.65369	-1167.47815	-344.35529	1207.64026	-1245.68152	-380.00217	1063.42249	-1240.51721	-368.4913	950.5899	-1265.41675	-321.15671	818.91577	-1245.4884	-374.76123	828.16595	-1272.35889	-347.5791	746.24121	-1275.99805	-274.96432	1393.48315	-854.10754	-322.73303	1197.20874	-743.32501	-313.72607	1071.18701	-731.12372	-253.97704	964.52057	-701.40656	-143.15636	877.80194	-722.8385	-184.62799	865.30981	-683.96875	-124.53128	805.30804	-683.48718	-238.34348	935.47064	-1108.39453	-245.41797	927.22314	-890.12079	-425.9841	947.63666	-1064.58167	-430.8017	950.82147	-920.65747	-189.43538	620.57825	-1180.04004	-161.24338	489.83038	-1161.65527	-185.35005	305.05502	-1176.12317	-169.17404	81.19283	-1131.68103	-205.81523	45.443	-1075.07007	-22.63941	62.1428	-1139.71936	-344.75317	599.16748	-855.34039	-361.81454	441.39581	-886.66394	-439.65137	282.78558	-887.92682	-492.48334	85.84531	-948.74146	-543.74487	55.43483	-1002.69244	-358.76776	33.32448	-941.87396	-247.87604	1713.94897	-970.50739	1972.91907	1023.97534	-3102.06934	2012.4646	1021.91058	-3140.69678	NaN	NaN	NaN
84	0.83	-232.99503	1673.06189	-1062.4906	-218.56256	1682.73877	-949.2829	-337.77863	1604.64673	-1052.09424	-325.57681	1612.94971	-931.91516	-353.43564	1433.47046	-1003.96167	-399.55908	1142.50574	-996.4762	-211.97615	1361.07532	-1008.7915	-175.07149	1203.79285	-1013.09216	-410.14517	1242.94885	-920.02246	-278.64853	1388.72229	-1168.24414	-335.32462	1206.61475	-1246.0603	-371.31195	1062.73389	-1240.53125	-360.88605	949.74878	-1265.17859	-314.78409	817.63519	-1245.10742	-368.27466	827.5235	-1272.06213	-341.92761	745.25714	-1275.43848	-265.44144	1392.68298	-854.85248	-312.88226	1196.74487	-743.77832	-304.36349	1070.61853	-731.31384	-243.98561	964.14648	-701.99561	-132.69302	878.14606	-723.94324	-173.84834	865.38177	-684.8869	-113.54478	805.8681	-684.56036	-228.53001	934.73981	-1108.30664	-236.3793	926.80865	-890.18536	-416.32324	946.68823	-1065.22864	-421.56677	950.35992	-921.34863	-182.55254	618.43628	-1180.81628	-153.34633	488.26981	-1161.23535	-170.00259	303.33652	-1176.01929	-143.66687	79.91579	-1131.94324	-179.21541	42.64594	-1075.60693	4.21267	66.60942	-1138.01245	-338.85632	599.3902	-855.0318	-357.46564	441.77554	-886.34479	-437.25888	283.82385	-887.7392	-491.71051	87.13376	-948.48602	-543.59216	57.5076	-1002.52472	-358.65115	33.3073	-941.97833	-238.41283	1712.77686	-971.64667	1973.1582	1023.32837	-3101.89746	2012.53992	1021.99005	-3140.73657	NaN	NaN	NaN
85	0.84	-223.43166	1672.09863	-1063.43005	-208.96646	1681.78662	-950.21729	-328.33545	1603.7439	-1053.00488	-315.95624	1612.04321	-932.76123	-343.97934	1432.57141	-1004.83582	-390.23981	1141.67249	-997.35248	-202.59569	1360.11401	-1009.56964	-165.89247	1202.81042	-1013.61273	-401.01208	1242.34216	-920.68896	-269.19052	1387.73413	-1169.05164	-326.24454	1205.53235	-1246.59692	-362.63538	1061.80261	-1240.55774	-353.03317	948.9184	-1265.10046	-307.84305	816.23364	-1245.22815	-361.41653	826.68457	-1271.84363	-335.89783	744.09863	-1275.08862	-256.078	1391.83862	-855.69849	-303.35797	1196.2583	-744.23743	-295.00247	1069.98938	-731.66577	-234.01675	963.72595	-702.65875	-122.56691	878.38879	-725.41388	-163.23973	865.33105	-685.96765	-102.56638	806.33716	-685.82043	-218.63347	933.81744	-1108.28979	-227.34741	926.40686	-890.17859	-406.64966	945.71899	-1065.92249	-412.29608	949.8739	-922.27722	-175.50188	616.11407	-1181.59521	-145.45537	486.65109	-1161.05774	-155.62526	301.82254	-1175.93018	-119.60205	79.36355	-1132.02893	-154.27998	40.94069	-1075.87024	29.14802	70.97054	-1136.35754	-332.73117	599.42194	-854.69275	-352.96332	441.60989	-885.85455	-434.53519	284.85599	-887.42236	-490.79706	89.08667	-947.93103	-543.10803	59.60867	-1002.37683	-358.50659	33.22964	-941.81232	-228.81108	1711.90723	-972.37921	1972.96118	1023.3869	-3102.00415	2012.57349	1022.03882	-3140.71216	NaN	NaN	NaN
86	0.85	-213.72195	1671.1626	-1064.39392	-199.22604	1680.88293	-951.14502	-318.60767	1602.83386	-1054.01184	-306.34848	1611.2417	-933.70795	-334.79138	1431.8219	-1005.84198	-380.80231	1140.76208	-998.36896	-193.2892	1359.15015	-1010.45581	-156.54716	1201.89258	-1014.22626	-391.73062	1241.64673	-921.50885	-259.72824	1386.71606	-1169.96814	-316.95401	1204.41467	-1247.29456	-353.76385	1060.85669	-1240.88074	-344.8132	947.96991	-1265.21606	-300.55307	814.97534	-1245.1803	-354.10379	825.78363	-1271.70264	-329.21176	742.96173	-1274.82764	-246.58252	1391.06738	-856.71729	-293.94556	1195.77808	-744.74298	-285.69641	1069.37537	-732.14807	-224.13335	963.34045	-703.38879	-112.29136	878.57086	-726.37488	-152.92882	865.16388	-687.07288	-91.86865	806.617	-687.20471	-208.6245	932.72791	-1108.18359	-218.81346	925.56219	-889.89038	-396.80298	944.64642	-1066.7998	-402.99188	949.45929	-923.24963	-167.88623	614.01221	-1182.36487	-137.55058	485.18442	-1161.03198	-142.02965	300.48483	-1175.7229	-97.46633	79.14371	-1131.71008	-131.14371	39.9845	-1075.87097	52.01609	75.24026	-1134.78333	-326.43719	599.54596	-854.39594	-347.94287	441.6481	-885.56055	-431.43805	285.90866	-886.96979	-490.14285	90.42897	-947.47852	-542.66901	61.77286	-1001.73798	-358.39709	33.14343	-941.73267	-219.1219	1711.01831	-973.33148	1973.03845	1023.6095	-3101.97852	2012.48035	1021.81519	-3140.8457	NaN	NaN	NaN
87	0.86	-203.99922	1670.24951	-1065.48291	-189.49416	1679.92493	-952.16003	-308.92783	1602.11426	-1055.01868	-296.69534	1610.51782	-934.77246	-325.37857	1430.88416	-1006.88593	-371.21738	1139.79932	-999.35553	-183.8739	1358.24841	-1011.40405	-147.11305	1201.03186	-1014.96777	-382.54242	1240.9375	-922.45471	-250.23358	1385.67871	-1171.07874	-307.61188	1203.24927	-1248.08276	-344.5892	1059.90759	-1241.22913	-336.3522	946.88538	-1265.38232	-293.05692	813.75226	-1244.78394	-346.33801	824.78278	-1271.78259	-322.08044	741.74817	-1274.71777	-237.42781	1390.25024	-857.71149	-284.41769	1195.26306	-745.43073	-276.46344	1068.76038	-732.78137	-214.44011	962.80676	-704.32007	-102.39984	878.51965	-727.74658	-142.6983	865.0199	-688.18365	-81.52473	806.60364	-688.69464	-198.45647	931.52136	-1108.26538	-209.4469	924.98291	-889.8316	-386.76151	943.60083	-1067.87463	-393.47867	949.07092	-924.37122	-159.63748	612.18732	-1183.00378	-129.55856	483.72592	-1161.17175	-129.19902	299.18311	-1175.28784	-77.27589	79.32253	-1131.03174	-109.78678	39.70271	-1074.84094	72.46415	79.15412	-1133.28394	-320.19363	599.63568	-854.12518	-342.64926	441.65573	-885.29559	-428.07813	286.87311	-886.54742	-489.15137	91.99193	-947.00549	-542.17792	64.07601	-1001.02051	-358.28748	33.12832	-941.60748	-209.29575	1709.9729	-974.61877	1973.08203	1023.25122	-3102.0166	2012.63806	1022.10931	-3140.72925	NaN	NaN	NaN
88	0.87	-194.09703	1669.38806	-1066.76758	-179.65215	1679.13123	-953.27155	-299.28055	1601.53467	-1056.36584	-286.95264	1609.86877	-935.95001	-316.05518	1430.04163	-1008.14197	-361.42847	1138.83179	-1000.42175	-174.4496	1357.396	-1012.43768	-137.54323	1200.23096	-1015.73505	-373.08588	1240.03052	-923.61536	-240.79265	1384.60645	-1172.15735	-298.14719	1202.04431	-1249.05017	-335.31805	1058.8551	-1241.74963	-327.59677	945.77911	-1265.74951	-284.85251	812.45056	-1244.98645	-338.0625	823.74396	-1271.96667	-314.27536	740.461	-1274.5835	-228.11024	1389.53796	-858.82855	-274.98264	1194.76282	-746.23535	-267.27798	1068.1283	-733.5788	-204.83742	962.34259	-705.2442	-92.71272	878.35693	-729.13989	-132.85614	864.73303	-689.42603	-71.37378	806.5722	-690.18939	-188.13916	930.27148	-1108.38281	-200.05875	924.24921	-889.98608	-376.58649	942.66925	-1068.98132	-383.89084	948.50403	-925.56439	-150.83173	610.60309	-1183.30042	-121.31337	482.31854	-1161.22803	-116.92298	297.95285	-1174.66699	-59.18726	79.68263	-1129.85742	-90.45692	39.34255	-1073.51575	90.91519	82.89845	-1132.10449	-313.15982	599.63654	-853.88892	-336.83145	441.69724	-885.06445	-424.32022	287.94138	-886.15356	-488.56421	93.32102	-946.59723	-541.79364	66.64606	-1000.39966	-358.1763	33.01293	-941.41827	-199.39081	1709.12366	-975.74298	1972.97388	1023.76575	-3101.95581	2012.51282	1021.93964	-3140.62109	NaN	NaN	NaN
